<svg xmlns="http://www.w3.org/2000/svg" width="250" height="144" fill="none"><path fill="#BDC1C1" fill-rule="evenodd" d="M129.932 106.491l.775-1.823c.096-.236.204-.487.321-.753.207-.478.423-.972.604-1.477l.993-3.083.889-3.55c.053-.247.111-.493.169-.74.099-.418.193-.813.251-1.187l.596-4.3.172-3.055c.029-.484.058-.972.076-1.455l-.066-2.207c-.015-.293-.02-.583-.024-.871-.007-.454-.013-.884-.068-1.316l-.254-2.332c-.067-.957-.266-1.935-.457-2.882a46.79 46.79 0 01-.245-1.255 29.443 29.443 0 01-.078-.41c-.035-.184-.068-.367-.105-.513l-.853-2.973c-.086-.355-.231-.72-.385-1.106-.063-.16-.126-.317-.18-.459l-.65-1.68c-.119-.35-.296-.692-.482-1.053l-.719-1.422c-.086-.16-.165-.32-.24-.475a4.727 4.727 0 00-.269-.507l-1.632-2.534a1.524 1.524 0 01.493-2.13l6.313-3.834a1.534 1.534 0 012.189.67l1.542 3.384c.162.352.278.705.39 1.047.05.157.102.317.173.514l.601 1.798c.177.525.378 1.12.496 1.73l.455 1.978c.036.164.075.33.113.496.124.529.264 1.127.322 1.716l.459 3.405c.033.285.046.573.059.863l.02.428c.016.436.04.875.065 1.318.064 1.183.131 2.409.042 3.629l-.089 2.45c-.014.616-.089 1.212-.163 1.788-.034.277-.07.554-.1.862l-.298 2.487c-.003.03-.008.061-.013.09a63.22 63.22 0 01-.306 1.547l-.649 3.174c-.009.039-.018.078-.029.117l-1.283 4.429c-.157.516-.344.988-.524 1.445-.088.221-.174.439-.262.68l-1.089 2.799a1.838 1.838 0 01-.049.113l-1.897 3.863a26.481 26.481 0 01-.934 1.593c-.138.224-.269.435-.399.657l-1.145 1.88a1.527 1.527 0 01-1.08.719c-.005.001-.015.001-.013.002a1.533 1.533 0 01-1.745-1.284 1.525 1.525 0 01.196-1.005z" clip-rule="evenodd"/><path stroke="#565655" stroke-width="1.75" d="M129.932 106.491l.775-1.823c.096-.236.204-.487.321-.753.207-.478.423-.972.604-1.477l.993-3.083.889-3.55c.053-.247.111-.493.169-.74.099-.418.193-.813.251-1.187l.596-4.3.172-3.055c.029-.484.058-.972.076-1.455l-.066-2.207c-.015-.293-.02-.583-.024-.871-.007-.454-.013-.884-.068-1.316l-.254-2.332c-.067-.957-.266-1.935-.457-2.882a46.79 46.79 0 01-.245-1.255 29.443 29.443 0 01-.078-.41c-.035-.184-.068-.367-.105-.513l-.853-2.973c-.086-.355-.231-.72-.385-1.106-.063-.16-.126-.317-.18-.459l-.65-1.68c-.119-.35-.296-.692-.482-1.053l-.719-1.422c-.086-.16-.165-.32-.24-.475a4.727 4.727 0 00-.269-.507l-1.632-2.534a1.524 1.524 0 01.493-2.13l6.313-3.834a1.534 1.534 0 012.189.67l1.542 3.384c.162.352.278.705.39 1.047.05.157.102.317.173.514l.601 1.798c.177.525.378 1.12.496 1.73l.455 1.978c.036.164.075.33.113.496.124.529.264 1.127.322 1.716l.459 3.405c.033.285.046.573.059.863l.02.428c.016.436.04.875.065 1.318.064 1.183.131 2.409.042 3.629l-.089 2.45c-.014.616-.089 1.212-.163 1.788-.034.277-.07.554-.1.862l-.298 2.487c-.003.03-.008.061-.013.09a63.22 63.22 0 01-.306 1.547l-.649 3.174c-.009.039-.018.078-.029.117l-1.283 4.429c-.157.516-.344.988-.524 1.445-.088.221-.174.439-.262.68l-1.089 2.799a1.838 1.838 0 01-.049.113l-1.897 3.863a26.481 26.481 0 01-.934 1.593c-.138.224-.269.435-.399.657l-1.145 1.88a1.527 1.527 0 01-1.08.719c-.005.001-.015.001-.013.002a1.533 1.533 0 01-1.745-1.284 1.525 1.525 0 01.196-1.005v0z" clip-rule="evenodd"/><path stroke="#fff" stroke-linecap="round" stroke-linejoin="round" stroke-width="1.167" d="M133.658 103.001c-.054.155-.11.305-.168.451.072-.124.142-.253.212-.387l1.868-3.807s1.25-3.228 1.342-3.46c.163-.412.334-.841.475-1.307l1.277-4.401.641-3.149c.105-.502.206-1.001.299-1.51l.295-2.464c.024-.257.058-.527.091-.794.08-.636.147-1.159.159-1.681l.089-2.473c.085-1.172.02-2.334-.041-3.459-.025-.478-.049-.92-.064-1.363l-.02-.395c-.012-.258-.021-.504-.05-.748l-.455-3.367c-.052-.523-.169-1.027-.281-1.513l-.578-2.511c-.11-.557-.288-1.086-.446-1.554l-.748-2.229c-.122-.378-.212-.663-.344-.948"/><path stroke="#fff" stroke-linecap="round" stroke-linejoin="round" stroke-width=".989" d="M134.937 55.313a4.977 4.977 0 01-1.475-2.504 4.967 4.967 0 01.584-3.788 5.04 5.04 0 01.679-.878"/><path fill="#F6C7F9" fill-rule="evenodd" d="M133.483 139.972a.901.901 0 01-.462-.127l-8.337-5.01a.89.89 0 01-.431-.712.898.898 0 01-.832-.047l-9.117-5.479a.892.892 0 01-.305-1.224c3.127-5.187 3.71-10.863 1.27-12.394-.36-.206-.818-.319-1.332-.319-2.729 0-6.436 2.985-9.013 7.261a.89.89 0 01-1.225.304l-9.118-5.477a.895.895 0 01-.432-.713.862.862 0 01-.37.08.899.899 0 01-.46-.127l-8.34-5.009a.892.892 0 01-.41-.961c1.63-7.224 4.538-14.34 8.644-21.153 10.651-17.668 26.96-29.086 41.549-29.086 4.343 0 8.305 1.037 11.783 3.083l.06.033c.04.023.077.05.112.079l.004-.006c15.221 9.272 16.125 35.854 2.017 59.259-4.107 6.813-9.044 12.71-14.674 17.53a.899.899 0 01-.581.215z" clip-rule="evenodd"/><path fill="#565655" fill-rule="evenodd" d="M134.763 58.887c-14.897 0-31.507 11.587-42.315 29.518-4.155 6.893-7.1 14.1-8.75 21.417-.17.751.162 1.525.822 1.921l8.338 5.01c.22.132.463.214.712.243.141.204.327.381.55.516l9.117 5.477a1.787 1.787 0 002.453-.608c2.702-4.483 6.194-6.828 8.247-6.828.346 0 .636.065.886.201 1.741 1.149 1.437 6.139-1.589 11.159a1.78 1.78 0 00.61 2.449l9.117 5.478c.223.135.467.215.714.244.142.207.329.383.549.515l8.337 5.01a1.788 1.788 0 002.085-.174c5.703-4.884 10.702-10.855 14.858-17.748 6.895-11.439 10.507-23.958 10.171-35.25-.343-11.532-4.747-20.47-12.406-25.18l-.092-.06a2.321 2.321 0 00-.072-.04l-.035-.024a1.559 1.559 0 00-.096-.053c-3.61-2.119-7.719-3.193-12.211-3.193zm0 1.784c4.092 0 7.958.963 11.384 2.993l.002-.001c.018.01.035.021.053.033l.055.031-.001.003c14.835 9.036 15.615 34.979 1.717 58.037-4.149 6.882-9.136 12.729-14.49 17.313l-8.338-5.01c4.247-4.95 16.524-20.215 16.736-31.432 0 0-3.319 14.182-17.999 30.673l-9.117-5.477c3.449-5.723 3.879-11.79.979-13.609-.537-.309-1.147-.456-1.807-.456-2.977 0-6.954 3.007-9.778 7.692l-9.117-5.478c7.722-20.674 18.72-30.241 18.72-30.241-9.829 5.439-17.59 23.418-19.983 29.483l-8.338-5.01c1.55-6.871 4.39-14.009 8.538-20.89 10.713-17.772 27.025-28.654 40.784-28.654z" clip-rule="evenodd"/><path stroke="#fff" stroke-linecap="round" stroke-linejoin="round" stroke-width="1.243" d="M103.682 119.416l-6.781-4.075c3.818-9.851 8.353-16.957 11.538-21.238 3.589-4.824 6.288-7.203 6.316-7.227"/><path stroke="#fff" stroke-linecap="round" stroke-linejoin="round" stroke-width="1.803" d="M116.906 127.361c3.227-6.153 3.154-12.306-.328-14.398"/><path stroke="#fff" stroke-linecap="round" stroke-linejoin="round" stroke-width="1.243" d="M127.533 133.746c5.506-6.615 15.747-20.333 15.95-31.025M93.04 113.022l-5.88-3.533c1.614-6.612 4.34-13.128 8.113-19.387 13.48-22.365 36.003-33.618 50.205-25.083"/><path fill="#F6C7F9" fill-rule="evenodd" d="M146.008 92.635l6.538-10.846c3.712-6.16 2.368-13.945-2.827-18.551 1.626-1.583 3.998-2.51 3.998-2.51-2.915-1.612-5.434-.892-7.023-.015.787-2.39 3.232-4.535 3.232-4.535-4.339-.686-6.643 2.2-7.472 3.558-5.811-1.005-11.903 1.552-15.127 6.9l-6.538 10.847" clip-rule="evenodd"/><path stroke="#565655" stroke-linecap="round" stroke-linejoin="round" stroke-width="2.071" d="M146.353 93.397l6.81-11.299c3.867-6.415 2.467-14.526-2.945-19.323 1.694-1.65 4.165-2.615 4.165-2.615-3.037-1.678-5.66-.929-7.315-.016.82-2.489 3.366-4.723 3.366-4.723-4.519-.715-6.919 2.291-7.783 3.706-6.052-1.047-12.399 1.617-15.757 7.188l-6.811 11.298"/><path stroke="#fff" stroke-linecap="round" stroke-linejoin="round" stroke-width="1.243" d="M146.548 57.642c-1.283.616-2.107 1.656-2.573 2.418l-.534.877-1.475-.175c-5.414-.937-10.743 1.493-13.575 6.193l-6.057 10.813M147.548 61.71c.744-.41 1.494-.654 2.244-.73"/><path fill="#F7E5F9" fill-rule="evenodd" d="M143.144 91.84c-3.512-.036-7.897-1.481-12.029-3.965-3.669-2.205-6.697-4.949-8.526-7.728a.803.803 0 01-.018-.852l7.646-12.687a.805.805 0 01.764-.384c3.317.313 7.164 1.698 10.831 3.902 4.133 2.483 7.464 5.675 9.143 8.755a.802.802 0 01-.017.794l-7.099 11.777a.8.8 0 01-.687.388h-.008z" clip-rule="evenodd"/><path fill="#565655" fill-rule="evenodd" d="M130.906 65.42c-.559 0-1.082.291-1.374.775l-7.647 12.686a1.6 1.6 0 00.034 1.706c1.893 2.877 5.012 5.71 8.782 7.974 4.25 2.554 8.782 4.042 12.434 4.08h.018c.561 0 1.083-.293 1.373-.775l7.099-11.776a1.596 1.596 0 00.034-1.59c-1.744-3.204-5.182-6.506-9.433-9.06-3.77-2.264-7.736-3.69-11.169-4.013a1.64 1.64 0 00-.151-.007zm0 1.601c3.057.288 6.808 1.577 10.493 3.79 4.153 2.496 7.308 5.617 8.852 8.453l-7.099 11.776c-3.233-.035-7.471-1.356-11.625-3.852-3.683-2.213-6.582-4.92-8.268-7.481l7.647-12.686z" clip-rule="evenodd"/><path fill="#575756" fill-rule="evenodd" d="M142.235 76.76a.926.926 0 11-.317-1.27c.44.263.582.833.317 1.27zM136.631 73.393a.926.926 0 11-.317-1.27c.44.262.582.832.317 1.27z" clip-rule="evenodd"/><path fill="#D06A5C" fill-rule="evenodd" d="M140.08 89.4a4.265 4.265 0 01-2.132-.573.76.76 0 01-.365-.507.77.77 0 01.141-.608c.5-.805-.536-2.834-3.237-4.457-1.39-.835-2.909-1.335-4.061-1.335-.685 0-1.183.177-1.369.485a.832.832 0 01-.483.455.962.962 0 01-.285.045.673.673 0 01-.355-.094c-1.964-1.223-2.591-3.827-1.398-5.805a4.289 4.289 0 013.655-2.06c.772 0 1.531.21 2.194.61l9.895 5.943a4.257 4.257 0 011.453 5.841 4.23 4.23 0 01-3.653 2.06z" clip-rule="evenodd"/><path fill="#565655" fill-rule="evenodd" d="M130.191 74.188c-1.753 0-3.403.93-4.306 2.429-1.404 2.33-.666 5.397 1.647 6.837a1.528 1.528 0 001.246.163c.419-.128.762-.43.941-.828.055-.025.278-.11.705-.11 1.021 0 2.393.457 3.671 1.224 2.268 1.363 3.075 2.924 3.028 3.347a1.51 1.51 0 00-.284 1.211c.083.43.349.803.729 1.022a5.029 5.029 0 002.512.675c1.753 0 3.402-.93 4.304-2.427a4.969 4.969 0 00.57-3.794 4.979 4.979 0 00-2.284-3.086l-9.894-5.945a5.016 5.016 0 00-2.585-.718zm0 1.515c.615 0 1.238.162 1.804.5l9.893 5.946a3.496 3.496 0 01-1.808 6.494 3.495 3.495 0 01-1.752-.47c.034-.046.073-.088.101-.135.807-1.337-.784-3.77-3.551-5.432-1.581-.95-3.203-1.443-4.454-1.443-.941 0-1.672.278-2.018.853-.028.048-.047.1-.071.152a3.494 3.494 0 01-1.15-4.77 3.504 3.504 0 013.006-1.695z" clip-rule="evenodd"/><path fill="#FFA69D" fill-rule="evenodd" d="M138.297 88.917a.694.694 0 01-.36-.096l-9.947-5.973c-.326-.197-.501-.633-.351-.982.042-.097.074-.169.115-.239.477-.79 1.424-1.221 2.672-1.221 1.437 0 3.202.563 4.842 1.55 3.228 1.94 4.866 4.722 3.812 6.472a4.21 4.21 0 01-.129.179.86.86 0 01-.654.31z" clip-rule="evenodd"/><path fill="#565655" fill-rule="evenodd" d="M130.424 79.647c-1.523 0-2.701.564-3.318 1.587a2.471 2.471 0 00-.149.299c-.287.672-.069 1.49.535 1.896.035.022.068.045.102.065l9.898 5.947c.028.017.075.043.11.061a1.521 1.521 0 001.923-.398c.081-.1.147-.19.205-.286.408-.678.892-2.126-.466-4.202-.794-1.215-2.073-2.389-3.604-3.31-1.756-1.053-3.665-1.659-5.236-1.659zm0 1.516c1.251 0 2.873.493 4.453 1.443 2.768 1.662 4.358 4.095 3.552 5.432-.029.047-.067.09-.102.134-.016-.01-.035-.018-.052-.028l-9.894-5.945c-.016-.01-.03-.022-.046-.031.023-.051.042-.104.072-.153.345-.574 1.076-.852 2.017-.852z" clip-rule="evenodd"/><path fill="#BDC1C1" fill-rule="evenodd" d="M123.107 61.95a1.845 1.845 0 00-1.364-.603h-7.259c-.519 0-1.014.22-1.364.603-.349.384-.52.897-.468 1.413l3.629 49.759a1.84 1.84 0 001.832 1.659c.948 0 1.74-.717 1.832-1.659l3.63-49.759a1.829 1.829 0 00-.468-1.413z" clip-rule="evenodd"/><path stroke="#565655" stroke-width="1.75" d="M123.107 61.95a1.845 1.845 0 00-1.364-.603h-7.259c-.519 0-1.014.22-1.364.603-.349.384-.52.897-.468 1.413l3.629 49.759a1.84 1.84 0 001.832 1.659c.948 0 1.74-.717 1.832-1.659l3.63-49.759a1.829 1.829 0 00-.468-1.413v0z" clip-rule="evenodd"/><path stroke="#fff" stroke-linecap="round" stroke-linejoin="round" stroke-width="1.243" d="M118.114 112.944l-3.627-49.714"/><path fill="#BDC1C1" fill-rule="evenodd" d="M99.88 102.915l-1.384-2.85a1.47 1.47 0 01-.05-.113l-1.087-2.798c-.09-.242-.176-.46-.263-.68-.18-.456-.367-.93-.524-1.445l-1.284-4.43a1.308 1.308 0 01-.028-.116l-.65-3.173c-.105-.512-.21-1.024-.305-1.547-.006-.03-.01-.06-.014-.09l-.297-2.487c-.03-.31-.065-.587-.101-.864-.073-.575-.148-1.171-.162-1.787l-.09-2.45c-.088-1.221-.021-2.446.043-3.628.025-.443.05-.882.064-1.318l.02-.429c.014-.29.027-.578.06-.863l.46-3.404c.058-.59.197-1.189.32-1.717.039-.168.077-.333.113-.497l.456-1.978c.118-.609.318-1.204.496-1.728l.601-1.8c.07-.196.122-.357.173-.513a9.27 9.27 0 01.39-1.047l1.541-3.383a1.534 1.534 0 012.19-.671l6.313 3.834a1.525 1.525 0 01.493 2.131l-1.632 2.532c-.086.13-.175.313-.269.507-.076.156-.154.315-.24.476l-.719 1.421c-.187.363-.364.704-.482 1.054l-.651 1.68c-.053.142-.117.3-.18.46-.154.385-.299.75-.385 1.106l-.852 2.971c-.038.148-.071.331-.105.515-.025.136-.051.273-.079.408-.067.382-.155.818-.243 1.256-.193.946-.392 1.926-.458 2.881l-.255 2.334c-.053.432-.061.86-.068 1.314-.003.29-.008.578-.024.871l-.065 2.209c.018.483.046.97.075 1.454l.173 3.055.597 4.3c.057.373.15.768.25 1.187.058.247.115.492.168.739l.425 1.695.243.678-2.717 4.738z" clip-rule="evenodd"/><path stroke="#565655" stroke-width="2.071" d="M99.88 102.915l-1.384-2.85a1.47 1.47 0 01-.05-.113l-1.087-2.798c-.09-.242-.176-.46-.263-.68-.18-.456-.367-.93-.524-1.445l-1.284-4.43a1.308 1.308 0 01-.028-.116l-.65-3.173c-.105-.512-.21-1.024-.305-1.547-.006-.03-.01-.06-.014-.09l-.297-2.487c-.03-.31-.065-.587-.101-.864-.073-.575-.148-1.171-.162-1.787l-.09-2.45c-.088-1.221-.021-2.446.043-3.628.025-.443.05-.882.064-1.318l.02-.429c.014-.29.027-.578.06-.863l.46-3.404c.058-.59.197-1.189.32-1.717.039-.168.077-.333.113-.497l.456-1.978c.118-.609.318-1.204.496-1.728l.601-1.8c.07-.196.122-.357.173-.513a9.27 9.27 0 01.39-1.047l1.541-3.383a1.534 1.534 0 012.19-.671l6.313 3.834a1.525 1.525 0 01.493 2.131l-1.632 2.532c-.086.13-.175.313-.269.507-.076.156-.154.315-.24.476l-.719 1.421c-.187.363-.364.704-.482 1.054l-.651 1.68c-.053.142-.117.3-.18.46-.154.385-.299.75-.385 1.106l-.852 2.971c-.038.148-.071.331-.105.515-.025.136-.051.273-.079.408-.067.382-.155.818-.243 1.256-.193.946-.392 1.926-.458 2.881l-.255 2.334c-.053.432-.061.86-.068 1.314-.003.29-.008.578-.024.871l-.065 2.209c.018.483.046.97.075 1.454l.173 3.055.597 4.3c.057.373.15.768.25 1.187.058.247.115.492.168.739l.425 1.695.243.678-2.717 4.738v0z" clip-rule="evenodd"/><path stroke="#fff" stroke-linecap="round" stroke-linejoin="round" stroke-width="1.243" d="M99.651 97.973c-.36-.93-.79-2.043-.843-2.176-.163-.411-.334-.84-.477-1.306l-1.276-4.402-.64-3.147a61.575 61.575 0 01-.3-1.51l-.294-2.464c-.023-.257-.058-.528-.091-.796-.082-.634-.147-1.158-.159-1.68l-.09-2.472c-.084-1.172-.02-2.335.042-3.46.026-.479.05-.921.064-1.362l.02-.395c.012-.258.021-.506.049-.75l.455-3.366c.053-.523.169-1.026.282-1.513l.578-2.51c.108-.557.288-1.087.445-1.554l.749-2.23c.122-.379.212-.664.343-.948"/><path fill="#E2E9EA" fill-rule="evenodd" d="M119.465 62.722c-8.477 0-16.479-2.83-21.955-7.766l-1.493-1.345 8.169-24.96h15.142v6.181h-10.653l-5.491 16.78c4.274 3.152 10.091 4.93 16.281 4.93v6.18z" clip-rule="evenodd"/><path stroke="#565655" stroke-linecap="round" stroke-linejoin="round" stroke-width="2.071" d="M119.465 62.722c-8.477 0-16.479-2.83-21.955-7.766l-1.493-1.345 8.169-24.96h15.142v6.181h-10.653l-5.491 16.78c4.274 3.152 10.091 4.93 16.281 4.93v6.18z" clip-rule="evenodd"/><path fill="#E2E9EA" fill-rule="evenodd" d="M116.606 62.722c8.478 0 16.479-2.83 21.956-7.766l1.493-1.345-8.17-24.96h-15.142v6.181h10.653l5.491 16.78c-4.273 3.152-10.091 4.93-16.281 4.93v6.18z" clip-rule="evenodd"/><path stroke="#565655" stroke-linecap="round" stroke-linejoin="round" stroke-width="2.071" d="M116.606 62.722c8.478 0 16.479-2.83 21.956-7.766l1.493-1.345-8.17-24.96h-15.142v6.181h10.653l5.491 16.78c-4.273 3.152-10.091 4.93-16.281 4.93v6.18z" clip-rule="evenodd"/><path fill="#7E8282" fill-rule="evenodd" d="M112.898 53.537h10.43v-21.52h-10.43v21.52z" clip-rule="evenodd"/><path stroke="#565655" stroke-width="2.071" d="M112.898 53.537h10.43v-21.52h-10.43v21.52z" clip-rule="evenodd"/><path fill="#BDC1C1" fill-rule="evenodd" d="M111.414 44.78h13.4v-7.559h-13.4v7.56z" clip-rule="evenodd"/><path stroke="#565655" stroke-linecap="round" stroke-linejoin="round" stroke-width="2.071" d="M111.414 44.78h13.4v-7.559h-13.4v7.56z" clip-rule="evenodd"/><path fill="#BDC1C1" fill-rule="evenodd" d="M111.414 63.612h13.4V52.377h-13.4v11.235z" clip-rule="evenodd"/><path stroke="#565655" stroke-width="1.75" d="M111.414 63.612h13.4V52.377h-13.4v11.235z" clip-rule="evenodd"/><path fill="#BDC1C1" fill-rule="evenodd" d="M110.325 22.419h15.577V4.467h-15.577V22.42z" clip-rule="evenodd"/><path stroke="#565655" stroke-width="2.071" d="M110.325 22.419h15.577V4.467h-15.577V22.42z" clip-rule="evenodd"/><path fill="#E2E9EA" fill-rule="evenodd" d="M127.828 5.47c0 1.663-1.35 3.01-3.015 3.01h-13.399a3.013 3.013 0 01-3.016-3.01c0-1.663 1.35-3.01 3.016-3.01h13.399a3.013 3.013 0 013.015 3.01z" clip-rule="evenodd"/><path stroke="#565655" stroke-width="2.071" d="M127.828 5.47c0 1.663-1.35 3.01-3.015 3.01h-13.399a3.013 3.013 0 01-3.016-3.01c0-1.663 1.35-3.01 3.016-3.01h13.399a3.013 3.013 0 013.015 3.01v0z" clip-rule="evenodd"/><path stroke="#fff" stroke-linecap="round" stroke-linejoin="round" stroke-width="1.167" d="M111.413 6.975a1.508 1.508 0 01-1.507-1.504c0-.83.676-1.506 1.507-1.506h13.401"/><path fill="#BDC1C1" fill-rule="evenodd" d="M110.325 34.52h15.577V20.275h-15.577V34.52z" clip-rule="evenodd"/><path stroke="#565655" stroke-width="2.071" d="M110.325 34.52h15.577V20.275h-15.577V34.52z" clip-rule="evenodd"/><path fill="#E2E9EA" fill-rule="evenodd" d="M127.828 21.278c0 1.663-1.35 3.01-3.015 3.01h-13.399a3.013 3.013 0 01-3.016-3.01c0-1.663 1.35-3.01 3.016-3.01h13.399a3.013 3.013 0 013.015 3.01z" clip-rule="evenodd"/><path stroke="#565655" stroke-width="2.071" d="M127.828 21.278c0 1.663-1.35 3.01-3.015 3.01h-13.399a3.013 3.013 0 01-3.016-3.01c0-1.663 1.35-3.01 3.016-3.01h13.399a3.013 3.013 0 013.015 3.01v0z" clip-rule="evenodd"/><path fill="#E2E9EA" fill-rule="evenodd" d="M127.828 34.52c0 1.662-1.35 3.01-3.015 3.01h-13.399a3.013 3.013 0 01-3.016-3.01c0-1.663 1.35-3.01 3.016-3.01h13.399a3.013 3.013 0 013.015 3.01z" clip-rule="evenodd"/><path stroke="#565655" stroke-width="1.75" d="M127.828 34.52c0 1.662-1.35 3.01-3.015 3.01h-13.399a3.013 3.013 0 01-3.016-3.01c0-1.663 1.35-3.01 3.016-3.01h13.399a3.013 3.013 0 013.015 3.01v0z" clip-rule="evenodd"/><path stroke="#fff" stroke-linecap="round" stroke-linejoin="round" stroke-width="1.243" d="M111.413 22.783a1.508 1.508 0 01-1.507-1.505c0-.83.676-1.505 1.507-1.505h13.401"/><path stroke="#fff" stroke-linecap="round" stroke-linejoin="round" stroke-width="1.167" d="M111.413 36.025a1.508 1.508 0 01-1.507-1.505c0-.83.676-1.506 1.507-1.506h13.401M112.167 10.34v6.308M113.256 39.697v3.294"/><path stroke="#fff" stroke-linecap="round" stroke-linejoin="round" stroke-width="1.243" d="M114.484 46.682V52.2M112.167 26.127v3.775"/><path fill="#E2E9EA" fill-rule="evenodd" d="M111.487 55.615a2.083 2.083 0 01-2.083-2.079c0-1.145.934-2.079 2.083-2.079h13.253c1.148 0 2.082.934 2.082 2.08s-.934 2.078-2.082 2.078h-13.253z" clip-rule="evenodd"/><path fill="#565655" fill-rule="evenodd" d="M124.74 50.539h-13.254a3.004 3.004 0 00-3.002 2.997 3.005 3.005 0 003.002 2.999h13.254a3.003 3.003 0 003.002-2.999 3.003 3.003 0 00-3.002-2.997zm0 1.838a1.161 1.161 0 110 2.32h-13.254a1.161 1.161 0 010-2.32h13.254z" clip-rule="evenodd"/><path fill="#E2E9EA" fill-rule="evenodd" d="M111.487 65.264a2.083 2.083 0 01-2.083-2.08c0-1.145.934-2.078 2.083-2.078h13.253c1.148 0 2.082.933 2.082 2.078 0 1.147-.934 2.08-2.082 2.08h-13.253z" clip-rule="evenodd"/><path fill="#565655" fill-rule="evenodd" d="M124.74 60.187h-13.254a3.004 3.004 0 00-3.002 2.998 3.005 3.005 0 003.002 2.998h13.254a3.003 3.003 0 003.002-2.998 3.003 3.003 0 00-3.002-2.998zm0 1.838a1.161 1.161 0 110 2.32h-13.254a1.161 1.161 0 010-2.32h13.254zM101.01 52.377a.824.824 0 11-1.647-.001.824.824 0 011.647 0zM136.885 52.377a.825.825 0 01-1.649 0 .824.824 0 011.649 0z" clip-rule="evenodd"/><path stroke="#fff" stroke-linecap="round" stroke-linejoin="round" stroke-width="1.243" d="M113.128 57.147v2.348M105.638 30.55L98.275 53.2"/></svg>